<?xml version="1.0"?>
<svg xmlns="http://www.w3.org/2000/svg" height="512px" viewBox="-116 0 512 512" width="512px"><path d="m252.945312 144.953125 2.007813-48.230469c9.742187-3.082031 16.828125-12.203125 16.828125-22.953125 0-13.273437-10.796875-24.070312-24.066406-24.070312h-.785156v-.78125c0-13.269531-10.796876-24.066407-24.066407-24.066407h-76.25c-3.160156-9.609374-12.210937-16.566406-22.863281-16.566406-5.703125 0-10.945312 1.996094-15.074219 5.324219-5.871093-8.230469-15.488281-13.609375-26.34375-13.609375-15.257812 0-28.070312 10.617188-31.464843 24.851562h-1.667969c-13.273438 0-24.070313 10.796876-24.070313 24.066407v.78125h-.777344c-13.273437 0-24.070312 10.796875-24.070312 24.070312 0 10.6875 7.007812 19.765625 16.667969 22.894531l3.367187 53.957032c-12.957031 12.34375-20.316406 29.40625-20.316406 47.394531 0 20.898437 9.859375 40.308594 26.5625 52.648437l1.863281 29.863282c.246094 3.976562 3.550781 7.035156 7.476563 7.035156.160156 0 .316406-.003906.476562-.015625 4.132813-.257813 7.273438-3.816406 7.019532-7.953125l-2.089844-33.480469c-.148438-2.359375-1.402344-4.515625-3.382813-5.808593-9.78125-6.390626-16.867187-15.769532-20.398437-26.507813h245.023437c-4.0625 12.398437-12.855469 22.914063-24.898437 29.117187-2.398438 1.234376-3.949219 3.660157-4.058594 6.355469l-9.9375 238.601563c-.015625.167968-.03125.335937-.039062.507812-.234376 4.832032-4.203126 8.617188-9.035157 8.617188h-149.101562c-4.832031 0-8.800781-3.785156-9.035157-8.617188-.007812-.226562-.03125-.449218-.0625-.671875l-11.074218-177.460937c-.257813-4.136719-3.855469-7.269532-7.953125-7.019532-4.136719.257813-7.277344 3.820313-7.019531 7.953126l11.113281 178.027343c.011719.195313.03125.386719.058593.578125.953126 12.511719 11.355469 22.214844 23.972657 22.214844h149.101562c12.617188 0 23.023438-9.707031 23.976563-22.222656.03125-.238282.054687-.476563.0625-.722656l9.78125-234.96875c19.636718-11.832032 31.664062-32.929688 31.664062-56.070313 0-21.222656-10.058594-40.746094-27.121094-53.0625zm-237.164062 53.847656c-.257812 0-.507812.011719-.757812.039063-.003907-.273438-.027344-.546875-.027344-.820313 0-14.859375 6.519531-28.898437 17.878906-38.527343 1.804688-1.527344 2.78125-3.824219 2.636719-6.1875l-3.464844-55.46875h59.066406v42.199218c0 13.269532 10.796875 24.066406 24.066407 24.066406 13.269531 0 24.066406-10.796874 24.066406-24.066406v-16.566406c0-5 4.066406-9.066406 9.066406-9.066406s9.066406 4.066406 9.066406 9.066406v66.265625c0 3.207031.632813 6.269531 1.777344 9.066406zm182.234375-124.25c-4.144531 0-7.5 3.355469-7.5 7.5v8.261719c0 .007812-.003906.011719-.003906.019531 0 .007813.003906.011719.003906.019531v99.382813c0 4.996094-4.070313 9.066406-9.070313 9.066406-4.996093 0-9.0625-4.070312-9.0625-9.066406v-66.269531c0-13.269532-10.796874-24.066406-24.066406-24.066406-13.269531 0-24.070312 10.796874-24.070312 24.066406v16.566406c0 5-4.066406 9.070312-9.0625 9.070312-5 0-9.070313-4.070312-9.070313-9.070312v-49.679688c0-.007812.003907-.011718.003907-.019531 0-.003906-.003907-.011719-.003907-.019531v-8.261719c0-4.144531-3.355469-7.5-7.5-7.5-4.140625 0-7.5 3.355469-7.5 7.5v.78125l-66.820312.003907c-4.972657-.035157-9.007813-4.085938-9.007813-9.066407 0-5 4.066406-9.066406 9.066406-9.066406h8.261719.019531 16.566407c4.144531 0 7.5-3.355469 7.5-7.5 0-4.140625-3.355469-7.5-7.5-7.5h-9.066407v-.78125c0-5 4.066407-9.070313 9.066407-9.070313h8.285156c4.140625 0 7.5-3.355468 7.5-7.5 0-9.566406 7.78125-17.351562 17.347656-17.351562 9.566407 0 17.351563 7.78125 17.351563 17.351562 0 4.140626 3.355468 7.5 7.5 7.5 4.140625 0 7.5-3.359374 7.5-7.5 0-5 4.066406-9.066406 9.066406-9.066406 4.996094 0 9.066406 4.066406 9.066406 9.066406 0 2.070313.839844 3.945313 2.195313 5.300782 1.355469 1.359375 3.230469 2.199218 5.304687 2.199218h82.546875c5 0 9.066407 4.066407 9.066407 9.066407v.785156h-33.914063c-4.144531 0-7.5 3.355469-7.5 7.5 0 4.140625 3.355469 7.5 7.5 7.5h41.414063c.007812 0 .015624-.003906.019531-.003906h8.265625c5 0 9.066406 4.070312 9.066406 9.070312 0 4.984375-4.042969 9.039063-9.019531 9.066407-.015625 0-.03125-.003907-.046875-.003907h-42.199219v-.78125c0-4.144531-3.359375-7.5-7.5-7.5zm66.265625 124.25h-60.546875c1.144531-2.800781 1.78125-5.859375 1.78125-9.066406v-91.902344h34.378906l-2.109375 50.6875c-.113281 2.695313 1.230469 5.242188 3.515625 6.671875 14.882813 9.304688 23.765625 25.316406 23.765625 42.824219 0 .277344-.011718.550781-.015625.824219-.253906-.027344-.511719-.039063-.769531-.039063zm0 0" fill="#2e2453"/><path d="m206.296875 478.867188c4.144531 0 7.5-3.355469 7.5-7.5 0-4.140626-3.355469-7.5-7.5-7.5h-132.53125c-4.144531 0-7.5 3.359374-7.5 7.5 0 4.144531 3.355469 7.5 7.5 7.5zm0 0" fill="#2e2453"/></svg>
